<svg width="115" height="25" viewBox="0 0 115 25" xmlns="http://www.w3.org/2000/svg">
  <path
    d="M5.20492 19.748H0.724922V2.024H13.8849V5.664H5.20492V9.724H13.3249V13.364H5.20492V19.748ZM20.4627 19.748H15.9827V0.903999H20.4627V19.748ZM29.0104 5.972C30.8024 5.972 32.2491 6.15867 33.3504 6.532C34.4517 6.90533 35.2544 7.596 35.7584 8.604C36.2811 9.59333 36.5424 11.0307 36.5424 12.916V19.748H32.4824L32.3424 18.46H32.2584C31.9037 18.9267 31.3531 19.3 30.6064 19.58C29.8597 19.86 28.8891 20 27.6944 20C24.4651 20 22.8504 18.488 22.8504 15.464C22.8504 14.176 23.2704 13.168 24.1104 12.44C24.9691 11.6933 26.3131 11.32 28.1424 11.32H32.2864C32.1557 10.536 31.8197 10.0133 31.2784 9.752C30.7371 9.472 29.8131 9.332 28.5064 9.332C27.6851 9.332 26.8731 9.39733 26.0704 9.528C25.2864 9.64 24.5957 9.77067 23.9984 9.92L23.9144 9.864L23.9424 6.616C24.3157 6.504 24.7917 6.40133 25.3704 6.308C25.9491 6.196 26.5557 6.112 27.1904 6.056C27.8437 6 28.4504 5.972 29.0104 5.972ZM28.8424 16.696C29.9997 16.696 30.8677 16.556 31.4464 16.276C32.0251 15.9773 32.3237 15.5107 32.3424 14.876V14.176H29.1784C28.3571 14.176 27.7784 14.2973 27.4424 14.54C27.1251 14.764 26.9664 15.072 26.9664 15.464C26.9664 15.9307 27.1344 16.2573 27.4704 16.444C27.8064 16.612 28.2637 16.696 28.8424 16.696ZM39.751 15.66V9.78H38.071V6.14H40.171L41.011 2.808H44.231V6.14H47.283V9.78H44.231V14.68C44.231 15.2027 44.2963 15.5667 44.427 15.772C44.5577 15.9587 44.8563 16.052 45.323 16.052C45.6217 16.052 45.939 16.0427 46.275 16.024C46.611 15.9867 46.947 15.9493 47.283 15.912L47.367 15.968V19.608C46.471 19.8693 45.2857 20 43.811 20C42.3363 20 41.291 19.664 40.675 18.992C40.059 18.32 39.751 17.2093 39.751 15.66ZM49.273 15.884C50.729 16.2947 52.3437 16.5 54.117 16.5C54.9757 16.5 55.6197 16.472 56.049 16.416C56.4783 16.36 56.7677 16.2667 56.917 16.136C57.0663 16.0053 57.141 15.828 57.141 15.604C57.141 15.2867 57.0197 15.0907 56.777 15.016C56.553 14.9413 56.0957 14.8387 55.405 14.708L53.193 14.288C51.7743 14.008 50.7477 13.5693 50.113 12.972C49.497 12.356 49.189 11.4413 49.189 10.228C49.189 8.58533 49.6743 7.46533 50.645 6.868C51.6343 6.27067 53.2023 5.972 55.349 5.972C56.637 5.972 57.7663 6.04667 58.737 6.196C59.7263 6.32667 60.5477 6.49467 61.201 6.7L61.145 10.088L61.061 10.172C59.549 9.68667 57.897 9.444 56.105 9.444C55.2277 9.444 54.6117 9.50933 54.257 9.64C53.921 9.752 53.753 9.98533 53.753 10.34C53.753 10.5267 53.7997 10.676 53.893 10.788C54.005 10.9 54.2477 11.012 54.621 11.124C54.9943 11.2173 55.5823 11.3387 56.385 11.488L58.429 11.88C59.5677 12.1227 60.4077 12.524 60.949 13.084C61.4903 13.644 61.761 14.5307 61.761 15.744C61.761 16.808 61.565 17.6573 61.173 18.292C60.781 18.908 60.1183 19.3467 59.185 19.608C58.2703 19.8693 57.001 20 55.377 20C54.145 20 53.0063 19.944 51.961 19.832C50.9343 19.7013 50.0103 19.552 49.189 19.384V15.94L49.273 15.884ZM72.7591 12.384C72.4977 13.672 72.2271 14.932 71.9471 16.164C71.6671 17.396 71.3684 18.5907 71.0511 19.748H66.2071L62.7351 6.112H67.3831C67.6444 7.512 67.9057 8.968 68.1671 10.48C68.4284 11.992 68.6617 13.476 68.8671 14.932H68.9231C69.2031 13.476 69.5017 11.992 69.8191 10.48C70.1551 8.968 70.4911 7.512 70.8271 6.112H74.7471C75.0831 7.512 75.4097 8.968 75.7271 10.48C76.0631 11.992 76.3711 13.476 76.6511 14.932H76.7071C76.9124 13.476 77.1457 11.992 77.4071 10.48C77.6684 8.968 77.9297 7.512 78.1911 6.112H82.8951L79.4231 19.748H74.5791C74.2804 18.5907 73.9724 17.396 73.6551 16.164C73.3564 14.932 73.0764 13.672 72.8151 12.384H72.7591ZM90.0416 5.972C91.8336 5.972 93.2803 6.15867 94.3816 6.532C95.483 6.90533 96.2856 7.596 96.7896 8.604C97.3123 9.59333 97.5736 11.0307 97.5736 12.916V19.748H93.5136L93.3736 18.46H93.2896C92.935 18.9267 92.3843 19.3 91.6376 19.58C90.891 19.86 89.9203 20 88.7256 20C85.4963 20 83.8816 18.488 83.8816 15.464C83.8816 14.176 84.3016 13.168 85.1416 12.44C86.0003 11.6933 87.3443 11.32 89.1736 11.32H93.3176C93.187 10.536 92.851 10.0133 92.3096 9.752C91.7683 9.472 90.8443 9.332 89.5376 9.332C88.7163 9.332 87.9043 9.39733 87.1016 9.528C86.3176 9.64 85.627 9.77067 85.0296 9.92L84.9456 9.864L84.9736 6.616C85.347 6.504 85.823 6.40133 86.4016 6.308C86.9803 6.196 87.587 6.112 88.2216 6.056C88.875 6 89.4816 5.972 90.0416 5.972ZM89.8736 16.696C91.031 16.696 91.899 16.556 92.4776 16.276C93.0563 15.9773 93.355 15.5107 93.3736 14.876V14.176H90.2096C89.3883 14.176 88.8096 14.2973 88.4736 14.54C88.1563 14.764 87.9976 15.072 87.9976 15.464C87.9976 15.9307 88.1656 16.2573 88.5016 16.444C88.8376 16.612 89.295 16.696 89.8736 16.696ZM104.982 24.956H100.502V6.112H104.758L104.982 8.044V8.212H105.038C105.356 7.44667 105.804 6.88667 106.382 6.532C106.98 6.15867 107.838 5.972 108.958 5.972C110.769 5.972 112.094 6.504 112.934 7.568C113.793 8.61333 114.232 10.2 114.25 12.328C114.288 14.2133 114.092 15.7253 113.662 16.864C113.252 17.984 112.608 18.7867 111.73 19.272C110.853 19.7573 109.733 20 108.37 20C107.661 20 107.017 19.9347 106.438 19.804C105.878 19.6733 105.412 19.5147 105.038 19.328L104.982 19.356V24.956ZM107.502 9.78C106.756 9.78 106.149 10.0133 105.682 10.48C105.216 10.928 104.982 11.7027 104.982 12.804V15.744C105.673 16.024 106.485 16.164 107.418 16.164C108.296 16.164 108.921 15.9587 109.294 15.548C109.686 15.1187 109.882 14.2693 109.882 13C109.882 11.8987 109.733 11.0867 109.434 10.564C109.136 10.0413 108.492 9.78 107.502 9.78Z"
    fill="url(#paint0_linear_993_1157)" />
  <defs>
    <linearGradient id="paint0_linear_993_1157" x1="11.2677" y1="10" x2="106.37" y2="10" gradientUnits="userSpaceOnUse">
      <stop stop-color="#51789D" />
      <stop offset="1" stop-color="#6F9BC5" />
    </linearGradient>
  </defs>
</svg>
